<svg width="51" height="51" viewBox="0 0 51 51" fill="none" xmlns="http://www.w3.org/2000/svg">
<g id="Group 7035">
<path id="Vector" d="M17.7695 18.9488C20.7749 20.4555 24.3945 19.2538 25.8542 16.2647C27.3139 13.2757 26.0609 9.63112 23.0555 8.1244C20.0501 6.61768 16.4305 7.81935 14.9708 10.8084C13.5111 13.7975 14.7641 17.442 17.7695 18.9488Z" fill="#FFA03A"/>
<path id="Vector_2" d="M31.9626 20.7308C34.0498 21.7772 36.5635 20.9426 37.5772 18.8668C38.5909 16.7911 37.7207 14.2601 35.6336 13.2137C33.5464 12.1673 31.0327 13.0019 30.019 15.0776C29.0053 17.1534 29.8755 19.6844 31.9626 20.7308Z" fill="#FFA03A"/>
<path id="Vector_3" d="M38.702 29.7368C40.3771 30.5766 42.3945 29.9068 43.2081 28.2409C44.0217 26.5749 43.3233 24.5436 41.6482 23.7038C39.9732 22.864 37.9557 23.5338 37.1421 25.1997C36.3286 26.8657 37.0269 28.897 38.702 29.7368Z" fill="#FFA03A"/>
<path id="Vector_4" d="M34.1567 33.0065C33.5895 30.8097 33.124 28.9451 32.5417 26.7408C32.2424 25.5782 31.7462 24.317 30.8629 23.424C30.7257 23.2803 30.5812 23.1516 30.4294 23.0379C30.0803 22.7879 29.6715 22.5829 29.2779 22.3855C28.8842 22.1881 28.4754 21.9831 28.045 21.861C27.8638 21.8076 27.6752 21.7693 27.4792 21.7461C26.2429 21.5761 24.9677 21.949 23.859 22.4055C21.7917 23.2813 20.0467 24.0374 17.9643 24.9056C15.0176 25.884 11.5137 26.8456 10.4752 30.1309C10.1642 31.8873 10.5267 33.9627 12.2968 35.3941C13.2918 36.1742 17.2533 37.0546 21.0082 38.9374L21.2807 39.0741C25.0355 40.9569 28.1367 43.5994 29.3449 43.9428C31.5415 44.5006 33.3968 43.5185 34.5786 42.2175C36.5481 39.3803 35.1767 35.9741 34.1567 33.0065Z" fill="#FFA03A"/>
</g>
</svg>
