<svg width="36" height="37" viewBox="0 0 36 37" fill="none" xmlns="http://www.w3.org/2000/svg">
<g clip-path="url(#clip0_1_2055)">
<path d="M6.00004 30.8334V21.5834C6.00004 18.3124 7.26432 15.1753 9.51475 12.8624C11.7652 10.5494 14.8174 9.25004 18 9.25004C21.1826 9.25004 24.2349 10.5494 26.4853 12.8624C28.7358 15.1753 30 18.3124 30 21.5834V30.8334H31.5V33.9167H4.50004V30.8334H6.00004ZM9.00004 30.8334H27V21.5834C27 19.1301 26.0518 16.7773 24.364 15.0426C22.6762 13.3079 20.387 12.3334 18 12.3334C15.6131 12.3334 13.3239 13.3079 11.6361 15.0426C9.94825 16.7773 9.00004 19.1301 9.00004 21.5834V30.8334ZM16.5 3.08337H19.5V7.70837H16.5V3.08337ZM29.667 7.41237L31.788 9.59229L28.608 12.8622L26.4855 10.6822L29.667 7.41237ZM4.21204 9.59229L6.33304 7.41237L9.51454 10.6807L7.39504 12.8637L4.21204 9.59229ZM10.5 21.5834C10.5 19.539 11.2902 17.5784 12.6967 16.1328C14.1033 14.6872 16.0109 13.875 18 13.875V16.9584C16.8066 16.9584 15.662 17.4456 14.8181 18.313C13.9741 19.1804 13.5 20.3567 13.5 21.5834H10.5Z" fill="#CF0003"/>
</g>
<defs>
<clipPath id="clip0_1_2055">
<rect width="36" height="37" fill="white"/>
</clipPath>
</defs>
</svg>
