<svg width="39" height="38" viewBox="0 0 39 38" fill="none" xmlns="http://www.w3.org/2000/svg">
<ellipse cx="19.3855" cy="19.3858" rx="19.3855" ry="18.5606" fill="url(#paint0_linear_1_2051)"/>
<path d="M23.9937 12.3871C22.3348 12.3871 20.7426 13.1392 19.7034 14.3278C18.6642 13.1392 17.0721 12.3871 15.4132 12.3871C12.4768 12.3871 10.1696 14.6342 10.1696 17.4942C10.1696 21.0042 13.4111 23.8642 18.321 28.2099L19.7034 29.4263L21.0858 28.2006C25.9958 23.8642 29.2373 21.0042 29.2373 17.4942C29.2373 14.6342 26.9301 12.3871 23.9937 12.3871ZM19.7988 26.8263L19.7034 26.9192L19.6081 26.8263C15.07 22.8242 12.0763 20.1778 12.0763 17.4942C12.0763 15.6371 13.5064 14.2442 15.4132 14.2442C16.8814 14.2442 18.3115 15.1635 18.8168 16.4356H20.5996C21.0954 15.1635 22.5254 14.2442 23.9937 14.2442C25.9004 14.2442 27.3305 15.6371 27.3305 17.4942C27.3305 20.1778 24.3369 22.8242 19.7988 26.8263Z" fill="#FBFDFE"/>
<defs>
<linearGradient id="paint0_linear_1_2051" x1="19.3855" y1="0.825195" x2="19.3855" y2="37.9464" gradientUnits="userSpaceOnUse">
<stop stop-color="#EF7E06"/>
<stop offset="1" stop-color="#F7B327"/>
</linearGradient>
</defs>
</svg>
