<svg width="55" height="53" viewBox="0 0 55 53" fill="none" xmlns="http://www.w3.org/2000/svg">
<path d="M54.5 26.5C54.5 41.1355 42.6355 53 28 53C13.3645 53 0 41.1355 0 26.5C0 11.8645 11.8645 0 26.5 0C41.1355 0 54.5 11.8645 54.5 26.5Z" fill="url(#paint0_linear_1_2113)"/>
<path d="M54.5 26.5C54.5 41.1355 42.6355 53 28 53C13.3645 53 0 41.1355 0 26.5C0 11.8645 11.8645 0 26.5 0C41.1355 0 54.5 11.8645 54.5 26.5Z" fill="url(#paint1_linear_1_2113)"/>
<g clip-path="url(#clip0_1_2113)">
<path d="M27.5001 29.25C29.2161 29.25 30.6072 28.0111 30.6072 26.4828C30.6072 24.9546 29.2161 23.7157 27.5001 23.7157C25.7841 23.7157 24.3929 24.9546 24.3929 26.4828C24.3929 28.0111 25.7841 29.25 27.5001 29.25Z" stroke="white" stroke-width="2" stroke-linecap="round" stroke-linejoin="round"/>
<path d="M40.695 22.9172C40.2545 21.716 39.3003 20.7207 38.042 20.1496C36.7837 19.5786 35.3241 19.4786 33.9836 19.8715C33.5051 19.993 33.0508 20.181 32.6372 20.4286C32.7711 19.9992 32.8407 19.5558 32.8443 19.11C32.8443 17.8393 32.2813 16.6205 31.279 15.722C30.2768 14.8234 28.9174 14.3186 27.5 14.3186C26.0826 14.3186 24.7233 14.8234 23.721 15.722C22.7188 16.6205 22.1557 17.8393 22.1557 19.11C22.1593 19.5558 22.229 19.9992 22.3629 20.4286C21.9506 20.1745 21.4962 19.9802 21.0165 19.8529C20.3541 19.659 19.6556 19.584 18.9609 19.6321C18.2662 19.6802 17.5888 19.8506 16.9675 20.1334C16.3462 20.4162 15.7932 20.806 15.3399 21.2804C14.8866 21.7549 14.542 22.3047 14.3257 22.8986C14.1095 23.4925 14.0258 24.1187 14.0795 24.7415C14.1332 25.3644 14.3232 25.9717 14.6386 26.5287C14.9541 27.0857 15.3888 27.5816 15.918 27.9879C16.4472 28.3943 17.0605 28.7033 17.7229 28.8972C18.2081 29.0256 18.7089 29.1004 19.2143 29.12C18.8282 29.3976 18.4805 29.7156 18.1786 30.0672C17.7662 30.5706 17.4694 31.1424 17.3054 31.7494C17.1414 32.3564 17.1136 32.9866 17.2234 33.6034C17.3332 34.2202 17.5786 34.8113 17.9453 35.3424C18.3119 35.8734 18.7926 36.334 19.3593 36.6972C20.5046 37.4392 21.9301 37.7462 23.3263 37.5514C24.7225 37.3567 25.9767 36.676 26.8165 35.6572C27.1079 35.293 27.3382 34.8926 27.5 34.4686C27.6683 34.8937 27.9056 35.2942 28.2043 35.6572C29.0441 36.676 30.2982 37.3567 31.6944 37.5514C33.0907 37.7462 34.5162 37.4392 35.6615 36.6972C36.2282 36.334 36.7088 35.8734 37.0755 35.3424C37.4422 34.8113 37.6875 34.2202 37.7974 33.6034C37.9072 32.9866 37.8793 32.3564 37.7154 31.7494C37.5514 31.1424 37.2546 30.5706 36.8422 30.0672C36.5402 29.7156 36.1925 29.3976 35.8065 29.12C36.3049 29.099 36.7987 29.0241 37.2772 28.8972C37.9409 28.7075 38.5562 28.402 39.0876 27.9983C39.6191 27.5946 40.0563 27.1006 40.374 26.5448C40.6916 25.989 40.8835 25.3823 40.9386 24.7597C40.9938 24.1372 40.911 23.5109 40.695 22.9172V22.9172Z" stroke="white" stroke-width="2" stroke-linecap="round" stroke-linejoin="round"/>
</g>
<defs>
<linearGradient id="paint0_linear_1_2113" x1="26.5" y1="0" x2="26.5" y2="53" gradientUnits="userSpaceOnUse">
<stop stop-color="#FF2929"/>
<stop offset="1" stop-color="#FF8E90"/>
</linearGradient>
<linearGradient id="paint1_linear_1_2113" x1="26.5" y1="0" x2="26.5" y2="53" gradientUnits="userSpaceOnUse">
<stop stop-color="#FF2929"/>
<stop offset="1" stop-color="#FF8E90"/>
</linearGradient>
<clipPath id="clip0_1_2113">
<rect width="29" height="26" fill="white" transform="translate(13 13)"/>
</clipPath>
</defs>
</svg>
