<svg width="35" height="32" viewBox="0 0 35 32" fill="none" xmlns="http://www.w3.org/2000/svg">
<path d="M24.8363 13.2925C24.938 13.3854 25.0187 13.4957 25.0737 13.6171C25.1288 13.7385 25.1571 13.8686 25.1571 14C25.1571 14.1315 25.1288 14.2616 25.0737 14.383C25.0187 14.5044 24.938 14.6147 24.8363 14.7075L20.4613 18.7075C20.3598 18.8005 20.2391 18.8743 20.1063 18.9246C19.9736 18.9749 19.8312 19.0008 19.6875 19.0008C19.5438 19.0008 19.4014 18.9749 19.2687 18.9246C19.1359 18.8743 19.0153 18.8005 18.9137 18.7075L15.3125 15.4138L11.7113 18.7075C11.5061 18.8952 11.2277 19.0006 10.9375 19.0006C10.6473 19.0006 10.3689 18.8952 10.1637 18.7075C9.95844 18.5199 9.84314 18.2654 9.84314 18C9.84314 17.7347 9.95844 17.4802 10.1637 17.2925L14.5387 13.2925C14.6403 13.1996 14.7609 13.1258 14.8937 13.0755C15.0264 13.0252 15.1688 12.9993 15.3125 12.9993C15.4562 12.9993 15.5986 13.0252 15.7313 13.0755C15.8641 13.1258 15.9848 13.1996 16.0863 13.2925L19.6875 16.5863L23.2887 13.2925C23.3903 13.1996 23.5109 13.1258 23.6437 13.0755C23.7764 13.0252 23.9188 12.9993 24.0625 12.9993C24.2062 12.9993 24.3486 13.0252 24.4813 13.0755C24.6141 13.1258 24.7348 13.1996 24.8363 13.2925ZM31.7188 16C31.7193 18.2445 31.0843 20.4508 29.8755 22.4042C28.6667 24.3577 26.9253 25.9917 24.8209 27.1473C22.7164 28.3029 20.3206 28.9407 17.8666 28.9986C15.4126 29.0564 12.984 28.5324 10.8172 27.4775L6.16191 28.8963C5.77648 29.0138 5.36287 29.0309 4.96744 28.9455C4.572 28.8602 4.21037 28.6759 3.92308 28.4132C3.63578 28.1506 3.43418 27.8199 3.34086 27.4584C3.24754 27.0968 3.26619 26.7187 3.39473 26.3663L4.94648 22.11C3.93223 20.3666 3.36574 18.4348 3.29 16.4613C3.21425 14.4877 3.63126 12.5244 4.50935 10.7202C5.38745 8.91604 6.70356 7.31847 8.35778 6.04878C10.012 4.77909 11.9609 3.87063 14.0564 3.39238C16.152 2.91413 18.3392 2.87865 20.452 3.28862C22.5648 3.6986 24.5477 4.54327 26.2501 5.7585C27.9526 6.97374 29.3298 8.5276 30.2774 10.3022C31.2249 12.0767 31.7179 14.0253 31.7188 16ZM29.5313 16C29.5307 14.3127 29.1056 12.6481 28.2889 11.135C27.4721 9.62186 26.2856 8.30083 24.821 7.27408C23.3565 6.24733 21.6533 5.54238 19.8431 5.21377C18.0329 4.88517 16.1642 4.94171 14.3818 5.37904C12.5993 5.81636 10.9508 6.62274 9.56369 7.73578C8.17662 8.84882 7.08821 10.2387 6.38266 11.7979C5.67711 13.357 5.37335 15.0437 5.49486 16.7274C5.61637 18.4111 6.1599 20.0466 7.0834 21.5075C7.16091 21.6302 7.20903 21.7665 7.22459 21.9074C7.24015 22.0484 7.22278 22.1907 7.17363 22.325L5.46875 27L10.582 25.44C10.7291 25.3953 10.8848 25.3796 11.0389 25.3941C11.1931 25.4085 11.3421 25.4527 11.4762 25.5238C13.3052 26.491 15.3805 27.0008 17.4934 27.0018C19.6063 27.0029 21.6822 26.4952 23.5124 25.5298C25.3425 24.5645 26.8623 23.1755 27.9189 21.5025C28.9755 19.8296 29.5316 17.9318 29.5313 16Z" fill="#FFB145"/>
</svg>
