<svg width="36" height="22" viewBox="0 0 36 22" fill="none" xmlns="http://www.w3.org/2000/svg">
<path d="M29.7403 8.73855C29.7412 8.73943 29.7408 8.73897 29.7417 8.73988C29.8171 8.81472 29.9657 8.87991 30.0485 8.81341C30.3571 8.56584 30.5838 8.24086 30.742 7.95068C30.9449 7.57873 31.3766 7.35067 31.797 7.40331C33.718 7.64391 34.5173 6.32788 34.8033 5.62606C34.914 5.35443 35.0628 5.06149 34.9638 4.78538C34.5076 3.51317 33.2515 2.4571 32.2274 1.57507C31.7037 1.12398 31.107 0.878615 30.8052 0.774328C30.6762 0.729737 30.3021 0.453181 30.1883 0.377865C29.6857 0.045371 29.0762 0.658306 28.4883 0.79092C28.4622 0.796811 28.4368 0.80285 28.412 0.809001C28.0298 0.903861 27.6066 0.8315 27.264 0.63743C25.9256 -0.120557 25.027 1.27377 24.7451 1.80439C24.6837 1.91998 24.5562 1.99529 24.4266 2.01341C24.1587 2.05082 24.0195 2.41325 24.1855 2.6267C26.0143 4.97767 27.9243 7.04377 29.7403 8.73855Z" fill="#EF7E06"/>
<path d="M33.2135 15.4304C32.7193 15.31 32.2471 15.0853 31.8287 14.796C31.3872 14.4906 30.7859 14.1023 30.1911 13.7268C29.2527 13.1343 28.8945 11.0781 28.9671 9.97063C28.9925 9.58278 28.822 9.33927 28.5423 9.06928C27.7764 8.32972 26.9968 7.5192 26.2088 6.6485C23.8873 4.08302 20.5412 3.16522 17.1123 3.62828C14.3377 4.00298 10.8561 3.96011 7.42751 2.42508C5.36894 1.49284 3.51413 2.3725 2.83112 2.77912C2.64072 2.89248 2.47628 3.04244 2.34413 3.22031C1.91696 3.79528 1.6507 4.44245 1.49107 5.08773C1.1012 6.66381 2.95038 7.26683 4.06058 6.08214C4.13861 5.99887 4.22336 5.92167 4.31556 5.8544C5.62184 4.90133 6.13846 5.11859 6.45261 5.63593C6.66926 6.06404 6.56093 6.59918 6.23597 7.02729C5.96499 7.30619 5.73167 7.58626 5.5311 7.86421C3.79343 10.2723 3.05823 13.7451 0.819849 15.6966C0.405024 16.138 0.253397 16.5515 0.2459 16.9153C0.228772 17.7464 1.4352 17.5741 2.02351 16.9868C2.24515 16.7656 2.48205 16.5508 2.7114 16.354C3.19229 15.9413 3.94233 16.6981 4.46114 17.062C4.61472 17.1697 4.60561 17.0633 4.77898 16.9916C5.00429 16.8985 5.18767 16.7834 5.33662 16.6549C6.15987 15.9444 7.98926 14.6012 8.79101 13.8665C9.45983 13.2537 9.86623 13.5114 10.7664 13.3989C10.8218 13.3919 10.8764 13.3841 10.9302 13.3754C12.3061 13.1533 14.7426 12.9487 16.0484 13.436C17.599 14.0147 19.428 14.4919 20.3181 14.711C20.6793 14.7999 21.0056 14.9604 21.2105 15.2708C21.7661 16.1122 22.7486 17.9708 23.3256 19.0843C23.6177 19.648 24.3389 20.1983 24.7481 20.6838C24.9187 20.8861 24.979 20.9184 25.2297 21.003C25.654 21.1462 26.1654 21.1629 26.6583 21.1217C27.7569 21.0297 28.1363 19.7637 27.0339 19.7637C27.0339 19.7637 27.0339 19.7637 27.0339 19.7637C24.959 19.7637 24.5742 17.3396 24.5257 15.931C24.5031 15.2746 24.7192 14.6632 25.3525 14.8368C26.3961 15.1228 27.4353 15.6687 28.4517 16.0398L31.9084 17.302C33.7636 18.2584 34.838 17.6717 35.2657 17.3098C35.4242 17.1756 35.5759 17.0035 35.583 16.7959C35.6059 16.1218 34.1483 15.6581 33.2135 15.4304Z" fill="#EF7E06"/>
</svg>
