<svg width="25" height="20" viewBox="0 0 25 20" fill="none" xmlns="http://www.w3.org/2000/svg">
<g clip-path="url(#clip0_142_8834)">
<path d="M8.48211 0.714355L4.01782 4.28578L8.48211 7.85721" stroke="#929292" stroke-width="2" stroke-linecap="round" stroke-linejoin="round"/>
<path d="M3.125 11.7856C3.125 13.269 3.67483 14.7191 4.70497 15.9524C5.73511 17.1858 7.19929 18.1471 8.91234 18.7147C10.6254 19.2824 12.5104 19.4309 14.329 19.1415C16.1475 18.8521 17.818 18.1378 19.1291 17.0889C20.4402 16.0401 21.3331 14.7037 21.6949 13.2488C22.0566 11.794 21.8709 10.286 21.1614 8.91552C20.4518 7.54507 19.2502 6.37373 17.7085 5.54962C16.1668 4.72551 14.3542 4.28564 12.5 4.28564H4.01786" stroke="#929292" stroke-width="2" stroke-linecap="round" stroke-linejoin="round"/>
</g>
<defs>
<clipPath id="clip0_142_8834">
<rect width="25" height="20" fill="white"/>
</clipPath>
</defs>
</svg>
