<svg width="20" height="20" viewBox="0 0 20 20" fill="none" xmlns="http://www.w3.org/2000/svg">
<path d="M17.8572 7.85718H2.14293C1.35395 7.85718 0.714355 8.49677 0.714355 9.28575V17.8572C0.714355 18.6462 1.35395 19.2857 2.14293 19.2857H17.8572C18.6462 19.2857 19.2858 18.6462 19.2858 17.8572V9.28575C19.2858 8.49677 18.6462 7.85718 17.8572 7.85718Z" stroke="#000001" stroke-linecap="round" stroke-linejoin="round"/>
<path d="M4.28564 4.99997V2.14282" stroke="#000001" stroke-linecap="round" stroke-linejoin="round"/>
<path d="M10 4.99997V2.14282" stroke="#000001" stroke-linecap="round" stroke-linejoin="round"/>
<path d="M15.7144 4.99997V2.14282" stroke="#000001" stroke-linecap="round" stroke-linejoin="round"/>
<path d="M19.2858 14.2856H18.5715C17.8137 14.2856 17.087 13.9846 16.5512 13.4488C16.0154 12.913 15.7144 12.1862 15.7144 11.4285C15.7144 12.1862 15.4133 12.913 14.8775 13.4488C14.3417 13.9846 13.615 14.2856 12.8572 14.2856C12.0995 14.2856 11.3727 13.9846 10.8369 13.4488C10.3011 12.913 10.0001 12.1862 10.0001 11.4285C10.0001 12.1862 9.69905 12.913 9.16323 13.4488C8.62741 13.9846 7.90069 14.2856 7.14293 14.2856C6.38517 14.2856 5.65844 13.9846 5.12262 13.4488C4.5868 12.913 4.28578 12.1862 4.28578 11.4285C4.28578 12.1862 3.98476 12.913 3.44895 13.4488C2.91313 13.9846 2.1864 14.2856 1.42864 14.2856H0.714355" stroke="#000001" stroke-linecap="round" stroke-linejoin="round"/>
</svg>
