<svg width="16" height="14" viewBox="0 0 16 14" fill="none" xmlns="http://www.w3.org/2000/svg">
<g id="nature-ecology-bone--pet-dog-bone-food-snack--Streamline-Core" clip-path="url(#clip0_1_2111)">
<path id="Vector" d="M13.1428 2.5C13.1428 1.96957 12.902 1.46086 12.4734 1.08579C12.0447 0.710714 11.4633 0.5 10.8571 0.5C10.2509 0.5 9.66954 0.710714 9.24088 1.08579C8.81223 1.46086 8.57141 1.96957 8.57141 2.5C8.57396 3.02958 8.81645 3.53665 9.2457 3.91L4.46855 8.09C4.04187 7.71441 3.46236 7.50223 2.85713 7.5C2.25092 7.5 1.66954 7.71071 1.24088 8.08579C0.812227 8.46086 0.571411 8.96957 0.571411 9.5C0.571411 10.0304 0.812227 10.5391 1.24088 10.9142C1.66954 11.2893 2.25092 11.5 2.85713 11.5C2.85713 12.0304 3.09794 12.5391 3.5266 12.9142C3.95525 13.2893 4.53663 13.5 5.14284 13.5C5.74905 13.5 6.33043 13.2893 6.75908 12.9142C7.18774 12.5391 7.42855 12.0304 7.42855 11.5C7.426 10.9704 7.18351 10.4634 6.75427 10.09L11.5314 5.91C11.9581 6.28559 12.5376 6.49777 13.1428 6.5C13.749 6.5 14.3304 6.28929 14.7591 5.91421C15.1877 5.53914 15.4286 5.03043 15.4286 4.5C15.4286 3.96957 15.1877 3.46086 14.7591 3.08579C14.3304 2.71071 13.749 2.5 13.1428 2.5Z" stroke="#000001" stroke-linecap="round" stroke-linejoin="round"/>
</g>
<defs>
<clipPath id="clip0_1_2111">
<rect width="16" height="14" fill="white"/>
</clipPath>
</defs>
</svg>
