<svg width="16" height="14" viewBox="0 0 16 14" fill="none" xmlns="http://www.w3.org/2000/svg">
<g id="nature-ecology-dog--head-dog-pet-animals-canine--Streamline-Core" clip-path="url(#clip0_1_2092)">
<g id="Group">
<path id="Vector" d="M11.4286 5V7C11.4286 7.26522 11.549 7.51957 11.7633 7.70711C11.9776 7.89464 12.2683 8 12.5714 8H13.1428C13.749 8 14.3304 7.78929 14.7591 7.41421C15.1877 7.03914 15.4286 6.53043 15.4286 6V3C15.4286 2.73478 15.3081 2.48043 15.0938 2.29289C14.8795 2.10536 14.5888 2 14.2857 2H12.5714C12.2097 1.9997 11.8533 1.9243 11.5314 1.78C10.4403 1.28174 9.23067 1.01457 7.99998 1C6.76155 1.01144 5.54372 1.2787 4.4457 1.78C4.1297 1.91893 3.78213 1.99411 3.42855 2H1.71427C1.41116 2 1.12047 2.10536 0.906146 2.29289C0.691819 2.48043 0.571411 2.73478 0.571411 3V6C0.571411 6.53043 0.812227 7.03914 1.24088 7.41421C1.66954 7.78929 2.25092 8 2.85713 8H3.42855C3.73166 8 4.02235 7.89464 4.23668 7.70711C4.451 7.51957 4.57141 7.26522 4.57141 7V5" stroke="#000001" stroke-linecap="round" stroke-linejoin="round"/>
<path id="Vector_2" d="M13.1429 8L12.7886 9.57C12.5707 10.5412 11.974 11.4159 11.1005 12.0447C10.2271 12.6735 9.13112 13.0173 8.00003 13.0173C6.86895 13.0173 5.77299 12.6735 4.89953 12.0447C4.02608 11.4159 3.42938 10.5412 3.21146 9.57L2.85718 8" stroke="#000001" stroke-linecap="round" stroke-linejoin="round"/>
<path id="Vector_3" d="M7.42859 10H8.57145" stroke="#000001" stroke-linecap="round" stroke-linejoin="round"/>
</g>
</g>
<defs>
<clipPath id="clip0_1_2092">
<rect width="16" height="14" fill="white"/>
</clipPath>
</defs>
</svg>
