<svg width="19" height="18" viewBox="0 0 19 18" fill="none" xmlns="http://www.w3.org/2000/svg">
<g id="DribbbleLogo">
<path id="Vector" d="M9.5 1.6875C7.97338 1.6875 6.48104 2.11637 5.2117 2.91988C3.94235 3.72339 2.95302 4.86544 2.36881 6.20163C1.78459 7.53781 1.63174 9.00811 1.92957 10.4266C2.2274 11.8451 2.96254 13.148 4.04202 14.1707C5.12151 15.1934 6.49686 15.8898 7.99415 16.172C9.49144 16.4541 11.0434 16.3093 12.4538 15.7559C13.8643 15.2024 15.0698 14.2651 15.9179 13.0626C16.7661 11.8601 17.2188 10.4463 17.2188 9C17.2166 7.06123 16.4027 5.20246 14.9556 3.83154C13.5085 2.46063 11.5465 1.68955 9.5 1.6875ZM16.0053 8.45016C15.8163 8.44172 15.627 8.4375 15.4375 8.4375C14.3361 8.43779 13.2396 8.57586 12.1763 8.84812C11.9171 8.11939 11.5828 7.41662 11.1781 6.75C12.2335 6.14708 13.1889 5.39953 14.0132 4.53164C15.1571 5.56556 15.8651 6.95827 16.0053 8.45016ZM13.0833 3.82922C12.3417 4.60124 11.4844 5.26598 10.5391 5.80219C9.74728 4.74639 8.77885 3.82014 7.672 3.06C8.58001 2.80888 9.53476 2.74761 10.4702 2.88042C11.4057 3.01323 12.2995 3.33696 13.09 3.82922H13.0833ZM6.35684 3.5775C7.57001 4.30129 8.62768 5.23602 9.47403 6.33234C7.99279 6.97911 6.381 7.31353 4.75 7.3125C4.24663 7.31225 3.74382 7.28055 3.24485 7.21758C3.74134 5.66614 4.85808 4.3599 6.35684 3.5775ZM2.96875 9C2.96872 8.77355 2.98185 8.54727 3.00809 8.32219C3.58519 8.39895 4.16724 8.43748 4.75 8.4375C6.61255 8.43916 8.45179 8.04512 10.1323 7.28437C10.5026 7.89011 10.8086 8.52909 11.046 9.19195C10.4153 9.41641 9.80489 9.68919 9.22094 10.0076C7.59189 10.8992 6.19509 12.1261 5.13371 13.5977C4.45214 13.0185 3.90707 12.3096 3.53404 11.5174C3.16101 10.7252 2.9684 9.86745 2.96875 9ZM6.08594 14.2734C7.04957 12.9232 8.32462 11.7982 9.81469 10.9835C10.3129 10.7111 10.8327 10.4761 11.3696 10.2804C11.5533 11.0528 11.6461 11.842 11.6464 12.6337C11.6468 13.4035 11.56 14.171 11.3874 14.9231C10.5054 15.1755 9.57697 15.2482 8.66322 15.1362C7.74947 15.0242 6.87111 14.7302 6.08594 14.2734ZM12.6959 14.3951C12.7875 13.8132 12.8336 13.2256 12.8339 12.6373C12.8338 11.7266 12.723 10.819 12.5036 9.93234C13.4603 9.68778 14.4467 9.56344 15.4375 9.5625C15.6255 9.5625 15.8138 9.56695 16.0023 9.57586C15.9029 10.5723 15.5502 11.5311 14.9744 12.3702C14.3986 13.2094 13.6168 13.9039 12.6959 14.3944V14.3951Z" fill="black"/>
</g>
</svg>
