<svg width="17" height="14" viewBox="0 0 17 14" fill="none" xmlns="http://www.w3.org/2000/svg">
<path d="M1.82146 9.5C2.49209 9.5 3.03575 8.82843 3.03575 8C3.03575 7.17157 2.49209 6.5 1.82146 6.5C1.15083 6.5 0.607178 7.17157 0.607178 8C0.607178 8.82843 1.15083 9.5 1.82146 9.5Z" stroke="#000001" stroke-linecap="round" stroke-linejoin="round"/>
<path d="M5.46429 5C6.13492 5 6.67857 4.32843 6.67857 3.5C6.67857 2.67157 6.13492 2 5.46429 2C4.79365 2 4.25 2.67157 4.25 3.5C4.25 4.32843 4.79365 5 5.46429 5Z" stroke="#000001" stroke-linecap="round" stroke-linejoin="round"/>
<path d="M11.5357 5C12.2063 5 12.75 4.32843 12.75 3.5C12.75 2.67157 12.2063 2 11.5357 2C10.8651 2 10.3214 2.67157 10.3214 3.5C10.3214 4.32843 10.8651 5 11.5357 5Z" stroke="#000001" stroke-linecap="round" stroke-linejoin="round"/>
<path d="M15.1786 9.5C15.8493 9.5 16.3929 8.82843 16.3929 8C16.3929 7.17157 15.8493 6.5 15.1786 6.5C14.508 6.5 13.9644 7.17157 13.9644 8C13.9644 8.82843 14.508 9.5 15.1786 9.5Z" stroke="#000001" stroke-linecap="round" stroke-linejoin="round"/>
<path d="M12.1429 10C12.1429 11.38 10.1757 12 8.50003 12C6.82432 12 4.85718 11.38 4.85718 10C4.85718 8.62 6.07146 6.5 8.50003 6.5C10.9286 6.5 12.1429 8.62 12.1429 10Z" stroke="#000001" stroke-linecap="round" stroke-linejoin="round"/>
</svg>
