<svg width="16" height="16" viewBox="0 0 16 16" fill="none" xmlns="http://www.w3.org/2000/svg">
<g id="programming-module-puzzle-1--code-puzzle-module-programming-plugin-piece--Streamline-Core" clip-path="url(#clip0_1_2074)">
<path id="Vector" d="M5.08997 2.18997C5.45032 2.54193 5.66459 3.0169 5.68997 3.51997L7.51997 1.69997C7.58282 1.62951 7.65986 1.57312 7.74602 1.53452C7.83219 1.49591 7.92555 1.47595 8.01997 1.47595C8.11439 1.47595 8.20775 1.49591 8.29392 1.53452C8.38008 1.57312 8.45712 1.62951 8.51997 1.69997L9.99997 3.23997C9.78977 3.3419 9.59731 3.47696 9.42997 3.63997C9.07379 4.03167 8.88209 4.54547 8.89465 5.07474C8.90721 5.60402 9.12307 6.10815 9.49743 6.48251C9.87179 6.85687 10.3759 7.07273 10.9052 7.08529C11.4345 7.09785 11.9483 6.90615 12.34 6.54997C12.503 6.38263 12.638 6.19018 12.74 5.97997L14.3 7.51997C14.3704 7.58282 14.4268 7.65986 14.4654 7.74602C14.504 7.83219 14.524 7.92555 14.524 8.01997C14.524 8.11439 14.504 8.20775 14.4654 8.29392C14.4268 8.38008 14.3704 8.45712 14.3 8.51997L12.48 10.31C12.8742 10.3338 13.2531 10.471 13.5712 10.705C13.8893 10.9391 14.133 11.26 14.273 11.6293C14.4131 11.9985 14.4435 12.4004 14.3606 12.7865C14.2777 13.1726 14.085 13.5266 13.8058 13.8058C13.5266 14.085 13.1726 14.2777 12.7865 14.3606C12.4004 14.4435 11.9985 14.4131 11.6293 14.273C11.26 14.133 10.9391 13.8893 10.705 13.5712C10.471 13.2531 10.3338 12.8742 10.31 12.48L8.47997 14.3C8.41712 14.3704 8.34008 14.4268 8.25392 14.4654C8.16775 14.504 8.07439 14.524 7.97997 14.524C7.88555 14.524 7.79219 14.504 7.70602 14.4654C7.61986 14.4268 7.54282 14.3704 7.47997 14.3L5.99997 12.76C6.21018 12.658 6.40263 12.523 6.56997 12.36C6.95586 11.9714 7.1716 11.4455 7.16972 10.8979C7.16785 10.3503 6.94851 9.82586 6.55997 9.43997C6.17143 9.05408 5.64551 8.83834 5.0979 8.84022C4.55029 8.84209 4.02586 9.06143 3.63997 9.44997C3.47696 9.61731 3.3419 9.80977 3.23997 10.02L1.69997 8.47997C1.62951 8.41712 1.57312 8.34008 1.53452 8.25392C1.49591 8.16775 1.47595 8.07439 1.47595 7.97997C1.47595 7.88555 1.49591 7.79219 1.53452 7.70602C1.57312 7.61986 1.62951 7.54282 1.69997 7.47997L3.51997 5.68997C3.0169 5.66459 2.54193 5.45032 2.18997 5.08997C1.80541 4.70541 1.58936 4.18383 1.58936 3.63997C1.58936 3.09611 1.80541 2.57453 2.18997 2.18997C2.57453 1.80541 3.09611 1.58936 3.63997 1.58936C4.18383 1.58936 4.70541 1.80541 5.08997 2.18997V2.18997Z" stroke="#000001" stroke-linecap="round" stroke-linejoin="round"/>
</g>
<defs>
<clipPath id="clip0_1_2074">
<rect width="16" height="16" fill="white"/>
</clipPath>
</defs>
</svg>
